<?xml version="1.0" encoding="UTF-8" standalone="no"?>
<!-- Created with Inkscape (http://www.inkscape.org/) -->

<svg
   xmlns:dc="http://purl.org/dc/elements/1.1/"
   xmlns:cc="http://creativecommons.org/ns#"
   xmlns:rdf="http://www.w3.org/1999/02/22-rdf-syntax-ns#"
   xmlns:svg="http://www.w3.org/2000/svg"
   xmlns="http://www.w3.org/2000/svg"
   xmlns:sodipodi="http://sodipodi.sourceforge.net/DTD/sodipodi-0.dtd"
   xmlns:inkscape="http://www.inkscape.org/namespaces/inkscape"
   width="23.863522mm"
   height="36.102303mm"
   viewBox="0 0 84.555785 127.92154"
   id="svg5223"
   version="1.1"
   inkscape:version="0.91 r13725"
   sodipodi:docname="mix-and-match-characters3.svg">
  <defs
     id="defs5225" />
  <sodipodi:namedview
     id="base"
     pagecolor="#ffffff"
     bordercolor="#666666"
     borderopacity="1.0"
     inkscape:pageopacity="0.0"
     inkscape:pageshadow="2"
     inkscape:zoom="0.98994949"
     inkscape:cx="33.654359"
     inkscape:cy="56.0609"
     inkscape:document-units="px"
     inkscape:current-layer="layer1"
     showgrid="false"
     fit-margin-top="0"
     fit-margin-left="0"
     fit-margin-right="0"
     fit-margin-bottom="0"
     inkscape:window-width="1615"
     inkscape:window-height="1026"
     inkscape:window-x="1985"
     inkscape:window-y="24"
     inkscape:window-maximized="1" />
  <metadata
     id="metadata5228">
    <rdf:RDF>
      <cc:Work
         rdf:about="">
        <dc:format>image/svg+xml</dc:format>
        <dc:type
           rdf:resource="http://purl.org/dc/dcmitype/StillImage" />
        <dc:title></dc:title>
      </cc:Work>
    </rdf:RDF>
  </metadata>
  <g
     inkscape:label="Layer 1"
     inkscape:groupmode="layer"
     id="layer1"
     transform="translate(-236.67491,-398.27862)">
    <g
       transform="translate(20.252145,393.89155)"
       id="g5300">
      <rect
         style="fill:#52357d;fill-rule:evenodd;stroke:#000000;stroke-width:1.56706953;stroke-linecap:round;stroke-linejoin:round"
         height="39.319054"
         x="-260.31821"
         y="-43.365891"
         width="24.503138"
         ry="17.522572"
         transform="matrix(-0.89930089,-0.43733043,-0.43733043,0.89930089,0,0)"
         rx="5.9832911"
         id="rect3252-4-6-2-2-1-1-4-7" />
      <rect
         style="fill:#52357d;fill-rule:evenodd;stroke:#000000;stroke-width:1.56707108;stroke-linecap:round;stroke-linejoin:round"
         height="39.319092"
         x="203.40259"
         y="181.82159"
         width="24.503162"
         ry="17.522589"
         transform="matrix(0.89929842,-0.43733552,0.43733552,0.89929842,0,0)"
         rx="5.9832973"
         id="rect3252-71-0-6-4-3-0-7-0" />
      <rect
         style="fill:#7d8f9a;fill-rule:evenodd;stroke:#000000;stroke-width:1.77445662;stroke-linecap:round;stroke-linejoin:round"
         height="48.300133"
         x="229.76292"
         y="82.206665"
         width="55.004124"
         ry="7.5465207"
         transform="matrix(0.99999998,-1.8157999e-4,6.0633989e-4,0.99999982,0,0)"
         rx="18.190304"
         id="rect3252-6-7-2-7-1-4-1-4" />
      <path
         style="fill:none;stroke:#000000;stroke-width:1.13502562;stroke-linecap:round;stroke-linejoin:round"
         inkscape:connector-curvature="0"
         d="m 258.4948,131.15262 -0.25902,-10.19384"
         id="path3928-9-81-8-0-49-4-4-1" />
      <path
         style="fill:#3f432a;stroke:#000000;stroke-width:1.51139832"
         inkscape:connector-curvature="0"
         d="m 261.06362,129.87268 c 0,0 0.20133,-8.0789 9.15467,-8.51784 12.04393,-0.59047 13.60671,7.27872 13.60671,7.27872 1.07371,2.34658 -22.85626,4.5427 -22.76138,1.23912 z"
         id="path4010-7-1-8-9-8-4-7-8" />
      <path
         style="fill:#3f432a;stroke:#000000;stroke-width:1.51139832"
         inkscape:connector-curvature="0"
         d="m 255.87227,129.88163 c 0,0 -0.20294,-7.71139 -9.22986,-8.13037 -12.14327,-0.56362 -13.71858,6.94764 -13.71858,6.94764 -1.08258,2.23989 23.04421,4.33612 22.94844,1.18273 z"
         id="path4010-1-9-1-1-1-9-1-9-0" />
      <path
         style="fill:#52357d;fill-rule:evenodd;stroke:#000000;stroke-width:1.84570312;stroke-linecap:round;stroke-linejoin:round"
         inkscape:connector-curvature="0"
         d="m 257.7698,56.996895 c -0.0994,0 -0.19907,0.009 -0.29828,0.009 -0.0564,0 -0.1128,0 -0.16916,-0.009 l -0.26266,0 0,0.02148 c -6.6554,0.361694 -12.82084,4.327884 -16.95244,9.335476 -8.85626,10.66106 -12.23368,24.702761 -12.53173,38.176999 0.23267,3.45591 -0.44717,7.60452 1.01947,10.60109 5.32928,3.24629 14.72642,3.78959 21.13326,4.54833 1.70008,0.0752 4.40048,0.0964 7.33225,0.11269 l 0,0.009 c 0.30763,0 0.60033,0 0.90374,-0.009 0.0299,-1.8e-4 0.0592,1.8e-4 0.0891,0 2.93177,-0.0161 5.63216,-0.0376 7.33224,-0.11269 6.40621,-0.75874 15.80407,-1.30204 21.13326,-4.54833 1.46665,-2.99666 0.78681,-7.14527 1.01947,-10.60109 -0.29814,-13.474238 -3.67574,-27.515939 -12.53173,-38.176999 -4.13178,-5.007144 -10.29767,-8.972976 -16.95244,-9.335476 l 0,-0.03043 c -0.0871,-8.9e-5 -0.1757,0 -0.26265,0 z"
         id="path3932-5-3-8-0-8-51-9-0-3" />
      <rect
         style="fill:#cfc0a1;fill-rule:evenodd;stroke:#000000;stroke-width:1.79012001;stroke-linecap:round;stroke-linejoin:bevel"
         x="225.75351"
         y="20.415796"
         width="62.654202"
         height="53.703602"
         ry="25.956739"
         rx="29.98451"
         id="rect4240-8-0-0-9" />
      <path
         style="fill:#7a612e;fill-rule:evenodd"
         inkscape:connector-curvature="0"
         d="m 261.69016,4.4031694 c -1.56367,0.3164932 -1.13556,5.1476691 -3.00104,5.0347125 -1.9899,-0.1204751 -3.4936,-4.8161388 -5.50203,-4.7550062 -2.00842,0.060864 -1.86933,6.1900563 -3.86979,6.4891853 -2.00046,0.299218 -3.51365,-5.6381623 -5.4493,-5.1465953 -1.93575,0.4915669 1.4499,5.2665333 -0.36856,6.0137293 -1.8185,0.747106 -4.45248,-3.9603722 -6.21279,-3.0488431 -1.76032,0.9116186 0.19143,7.0069771 -1.39522,8.1674221 -1.58666,1.160446 -5.65633,-3.828887 -7.16048,-2.573297 -1.50424,1.25568 3.02915,6.040939 1.68486,7.468202 -1.34438,1.427262 -6.38724,-1.698735 -7.47644,-0.111883 -1.0892,1.586852 5.12977,4.779799 4.29101,6.46117 -0.83875,1.681459 -7.16478,-0.963174 -7.81862,0.811193 -0.65382,1.774277 5.46452,2.382918 5.00178,4.223519 -0.46273,1.840691 -6.71698,1.532701 -6.89725,3.384491 -0.18023,1.851789 4.69441,3.533159 4.73854,5.426301 0.0441,1.893141 -5.12502,2.488177 -4.94914,4.335402 0.15813,1.661142 5.47096,0.295996 6.92355,1.314664 l 0.52651,0.02775 c 1.53681,-0.608462 4.55182,-0.724014 4.84388,-1.79012 0.38675,-1.411868 -4.73218,-1.883564 -4.18575,-3.244593 0.54646,-1.361028 5.85396,0.674428 6.55497,-0.615353 0.70102,-1.289782 -4.51683,-3.733654 -3.60655,-4.950846 0.91028,-1.217192 5.14185,1.178705 6.26542,0.08414 1.12366,-1.094748 -2.65242,-4.770849 -1.39522,-5.733933 1.2572,-0.963175 4.64975,2.84808 5.97587,1.957943 1.32612,-0.890137 -0.31295,-5.566199 1.1583,-6.26542 1.4713,-0.699221 3.66625,2.92264 5.18606,2.349533 1.5199,-0.573107 -1.30195,-4.238109 0.31591,-4.615198 1.61791,-0.376999 2.88228,4.201322 4.55425,3.971829 1.67197,-0.229404 1.53306,-4.959796 3.21165,-5.006697 1.6786,-0.04654 2.97017,3.543721 4.63328,3.636181 1.66311,0.09237 1.14326,-4.12748 2.79044,-3.859946 1.64727,0.267443 0.61784,4.871274 2.23765,5.258477 1.61981,0.387203 4.15684,-3.585163 5.73895,-3.076769 1.5821,0.508394 -0.89428,4.014165 0.60548,4.67105 1.49975,0.656884 4.69199,-1.373649 6.05481,-0.559413 1.36282,0.814326 -1.99097,2.760276 -0.73711,3.720138 1.2538,0.959863 5.20674,-1.684055 6.26542,-0.587428 1.05868,1.096717 -3.25345,3.991162 -2.31659,5.174611 0.93677,1.183448 6.13384,-0.271382 6.92355,0.978927 0.78973,1.250399 -4.03135,3.565829 -3.39594,4.894904 0.63541,1.329075 5.00571,-0.967023 5.39667,0.44753 0.39094,1.414553 -4.21161,2.045123 -3.97514,3.468358 0.17826,1.072818 3.29176,1.415895 4.81757,2.125767 1.79979,-0.633523 5.65159,0.127367 6.00218,-1.370605 0.42958,-1.83541 -5.2531,-1.900302 -4.97545,-3.748064 0.27759,-1.847762 6.35743,-3.320404 6.37076,-5.174521 0.0132,-1.854117 -6.48265,-2.032502 -6.76558,-3.887962 -0.28295,-1.855459 5.23261,-2.659044 4.76486,-4.503225 -0.46774,-1.844182 -5.66314,1.145318 -6.4234,-0.587428 -0.76027,-1.732657 4.97268,-4.74713 4.02777,-6.377303 -0.94492,-1.630083 -7.14527,0.256256 -8.26615,-1.286649 -1.12088,-1.542815 4.03081,-5.311196 2.76412,-6.740875 -1.26668,-1.42968 -5.97622,2.006545 -7.47643,0.755162 -1.50021,-1.251384 2.49936,-3.805258 0.86873,-4.866889 -1.63062,-1.061541 -5.445,1.58363 -7.23951,0.727236 -1.79442,-0.856304 1.15588,-5.4067888 -0.7371,-6.0695807 -1.89298,-0.662792 -4.93285,4.5045687 -6.87093,3.9997547 -1.93807,-0.504814 -0.71425,-6.4761172 -2.68518,-6.8248326 -0.12318,-0.021481 -0.23798,-0.021481 -0.34223,0 z"
         id="path4526-5-8-3-4-8" />
      <g
         style="fill:none;stroke:#000000;stroke-width:2;stroke-linecap:round;stroke-linejoin:round"
         transform="matrix(0.89506,0,0,0.89506,-87.223021,-71.229401)"
         id="g6049-5-3">
        <path
           inkscape:connector-curvature="0"
           d="m 364.65,134.13 c 1.7066,-6.2272 10.604,-5.9222 12,0"
           id="path4738-0-4-1-3-9" />
        <path
           inkscape:connector-curvature="0"
           d="m 391.74,133.82 c 1.7066,-6.2272 10.604,-5.9222 12,0"
           id="path4738-0-9-5-8-7-5" />
      </g>
      <path
         style="fill:none;stroke:#000000;stroke-width:1.73945963;stroke-linecap:round;stroke-linejoin:round"
         inkscape:connector-curvature="0"
         d="m 252.75746,59.198743 8.37741,-0.760085"
         id="path4540-9-8-4" />
      <path
         style="fill:#cfc0a1;fill-rule:evenodd;stroke:#000000;stroke-width:1.79013169;stroke-linecap:round;stroke-linejoin:round"
         inkscape:connector-curvature="0"
         d="m 218.24689,108.52198 c 1.74064,2.46707 5.33467,3.50913 8.02752,2.32752 2.69285,-1.18161 3.46476,-4.13944 1.72412,-6.60651 -1.74063,-2.46706 -5.33466,-3.50913 -8.02751,-2.32752 -2.69285,1.18162 -3.46477,4.13944 -1.72413,6.60651 z"
         id="path3954-8-5-7-3-4-8-9-1-7-1-3" />
      <path
         style="fill:#cfc0a1;fill-rule:evenodd;stroke:#000000;stroke-width:1.79013169;stroke-linecap:round;stroke-linejoin:round"
         inkscape:connector-curvature="0"
         d="m 299.15443,107.62692 c -1.74064,2.46707 -5.33467,3.50913 -8.02752,2.32752 -2.69285,-1.18161 -3.46476,-4.13944 -1.72412,-6.60651 1.74063,-2.46706 5.33466,-3.509129 8.02751,-2.32752 2.69285,1.18162 3.46477,4.13944 1.72413,6.60651 z"
         id="path3954-8-5-7-3-4-8-9-1-7-1-4-2" />
    </g>
  </g>
</svg>
