<?xml version="1.0"?>
<svg xmlns:rdf="http://www.w3.org/1999/02/22-rdf-syntax-ns#" xmlns="http://www.w3.org/2000/svg" xmlns:cc="http://creativecommons.org/ns#" xmlns:dc="http://purl.org/dc/elements/1.1/" xmlns:svg="http://www.w3.org/2000/svg" id="svg14755" viewBox="0 0 151.56 282.69" version="1.1">
  <defs id="defs14757">
    <clipPath id="clipPath8853" clipPathUnits="userSpaceOnUse">
      <path id="path8855" d="m560.86 344.19h34.694v-27.434h-34.694v27.434z"/>
    </clipPath>
    <clipPath id="clipPath8837" clipPathUnits="userSpaceOnUse">
      <path id="path8839" d="m588.12 325.26h10.167v-15.496h-10.167v15.496z"/>
    </clipPath>
    <clipPath id="clipPath8821" clipPathUnits="userSpaceOnUse">
      <path id="path8823" d="m554.36 314.42h8.804v-23.491h-8.804v23.491z"/>
    </clipPath>
    <clipPath id="clipPath8805" clipPathUnits="userSpaceOnUse">
      <path id="path8807" d="m606.87 316.76h19.31v-5.206h-19.31v5.206z"/>
    </clipPath>
    <clipPath id="clipPath8781" clipPathUnits="userSpaceOnUse">
      <path id="path8783" d="m585.87 312.53h19.668v-8.755h-19.668v8.755z"/>
    </clipPath>
    <clipPath id="clipPath8757" clipPathUnits="userSpaceOnUse">
      <path id="path8759" d="m590.43 346.03h26.37v-3.538h-26.37v3.538z"/>
    </clipPath>
    <clipPath id="clipPath8733" clipPathUnits="userSpaceOnUse">
      <path id="path8735" d="m613.98 410.24h22.78v-3.82h-22.78v3.82z"/>
    </clipPath>
    <clipPath id="clipPath8717" clipPathUnits="userSpaceOnUse">
      <path id="path8719" d="m569.5 410.24h22.779v-3.82h-22.779v3.82z"/>
    </clipPath>
    <clipPath id="clipPath8657" clipPathUnits="userSpaceOnUse">
      <path id="path8659" d="m617.56 413.04h7.166v-3.548h-7.166v3.548z"/>
    </clipPath>
    <clipPath id="clipPath8641" clipPathUnits="userSpaceOnUse">
      <path id="path8643" d="m572.86 414.39h7.164v-3.548h-7.164v3.548z"/>
    </clipPath>
    <clipPath id="clipPath8617" clipPathUnits="userSpaceOnUse">
      <path id="path8619" d="m577.38 399.09h6.811v-6.614h-6.811v6.614z"/>
    </clipPath>
    <clipPath id="clipPath8593" clipPathUnits="userSpaceOnUse">
      <path id="path8595" d="m616.5 399.09h6.813v-6.614h-6.813v6.614z"/>
    </clipPath>
  </defs>
  <g id="layer1" transform="translate(-723.46 -568.44)">
    <g id="g8559" transform="matrix(1.25 0 0 -1.25 769.5 801.79)">
      <path id="path8561" d="m0 0s-3.263-25.294-0.124-35.546 26.678-8.84 54.141 0-1.101 23.363-4.474 35.546" fill="#fbb03b"/>
    </g>
    <g id="g8563" transform="matrix(1.25 0 0 -1.25 746.43 803.47)">
      <path id="path8565" d="m0 0s-15.086-23.562-3.007-25.886c12.08-2.322 51.109 16.262 52.966 16.262l-4.181 10.974s-25.553-4.933-36.24-10.508l5.343 5.343-14.881 3.815z" fill="#f9dec5"/>
    </g>
    <g id="g8567" transform="matrix(1.25 0 0 -1.25 858.11 803.47)">
      <path id="path8569" d="m0 0s15.087-23.562 3.007-25.886c-12.08-2.322-51.108 16.262-52.966 16.262l4.182 10.974s25.553-4.933 36.24-10.508l-5.344 5.343 14.881 3.815z" fill="#f9dec5"/>
    </g>
    <g id="g8571" transform="matrix(1.25 0 0 -1.25 783.29 765.59)">
      <path id="path8573" d="m0 0s2.708-0.473 4.146 0.964h18.456s1.326-1.347 3.898-0.673l2.159-6.391-33.56 1.854 4.901 4.246z" fill="#f9dec5"/>
    </g>
    <path id="path8575" d="m811.54 764.39h-23.069v-20.505h23.069v20.505z" fill="#f9dec5"/>
    <g id="g8577" transform="matrix(1.25 0 0 -1.25 861.58 689.49)">
      <path id="path8579" d="m0 0c0-27.601-22.373-49.975-49.974-49.975-27.599 0-49.974 22.374-49.974 49.975 0 27.6 22.375 49.974 49.974 49.974 27.601 0 49.974-22.374 49.974-49.974" fill="#f9dec5"/>
    </g>
    <g id="g8581" transform="matrix(1.25 0 0 -1.25 830.7 702.14)">
      <path id="path8583" d="m0 0c0-3.524-2.858-6.383-6.383-6.383-3.524 0-6.382 2.859-6.382 6.383 0 3.525 2.858 6.381 6.382 6.381 3.525 0 6.383-2.856 6.383-6.381"/>
    </g>
    <g id="g8585" transform="matrix(1.25 0 0 -1.25 823.51 699.72)">
      <path id="path8587" d="m0 0c0-1.419-1.151-2.57-2.57-2.57-1.422 0-2.574 1.151-2.574 2.57 0 1.422 1.152 2.574 2.574 2.574 1.419 0 2.57-1.152 2.57-2.574" fill="#fff"/>
    </g>
    <g id="g8589" transform="matrix(1.25 0 0 -1.25 45.354 1197.7)">
      <g id="g8597">
        <g id="g8599" opacity=".2" clip-path="url(#clipPath8593)">
          <g id="g8601" transform="translate(623.32 395.79)">
            <path id="path8603" d="m0 0c0-1.825-1.524-3.307-3.406-3.307s-3.407 1.482-3.407 3.307c0 1.828 1.525 3.307 3.407 3.307s3.406-1.479 3.406-3.307" fill="#fff"/>
          </g>
        </g>
      </g>
    </g>
    <g id="g8605" transform="matrix(1.25 0 0 -1.25 779.73 702.14)">
      <path id="path8607" d="m0 0c0-3.524-2.855-6.383-6.382-6.383-3.525 0-6.383 2.859-6.383 6.383 0 3.525 2.858 6.381 6.383 6.381 3.527 0 6.382-2.856 6.382-6.381"/>
    </g>
    <g id="g8609" transform="matrix(1.25 0 0 -1.25 774.61 699.72)">
      <path id="path8611" d="m0 0c0-1.419-1.153-2.57-2.574-2.57-1.422 0-2.574 1.151-2.574 2.57 0 1.422 1.152 2.574 2.574 2.574 1.421 0 2.574-1.152 2.574-2.574" fill="#fff"/>
    </g>
    <g id="g8613" transform="matrix(1.25 0 0 -1.25 45.354 1197.7)">
      <g id="g8621">
        <g id="g8623" opacity=".2" clip-path="url(#clipPath8617)">
          <g id="g8625" transform="translate(584.19 395.79)">
            <path id="path8627" d="m0 0c0-1.825-1.524-3.307-3.405-3.307-1.882 0-3.407 1.482-3.407 3.307 0 1.828 1.525 3.307 3.407 3.307 1.881 0 3.405-1.479 3.405-3.307" fill="#fff"/>
          </g>
        </g>
      </g>
    </g>
    <g id="g8629" transform="matrix(1.25 0 0 -1.25 785.71 689.71)">
      <path id="path8631" d="m0 0s-11.269 7.433-22.779 3.357 9.351 13.427 22.779-3.357"/>
    </g>
    <g id="g8633" transform="matrix(1.25 0 0 -1.25 812.82 689.71)">
      <path id="path8635" d="m0 0s11.269 7.433 22.78 3.357-9.352 13.427-22.78-3.357"/>
    </g>
    <g id="g8637" transform="matrix(1.25 0 0 -1.25 45.354 1197.7)">
      <g id="g8645">
        <g id="g8647" opacity=".2" clip-path="url(#clipPath8641)">
          <g id="g8649" transform="translate(572.86 410.84)">
            <path id="path8651" d="m0 0s2.927 3.731 7.164 3.541-3.16-0.886-5.477-3.204-1.393-0.041-1.687-0.337" fill="#fff"/>
          </g>
        </g>
      </g>
    </g>
    <g id="g8653" transform="matrix(1.25 0 0 -1.25 45.354 1197.7)">
      <g id="g8661">
        <g id="g8663" opacity=".2" clip-path="url(#clipPath8657)">
          <g id="g8665" transform="translate(617.56 409.49)">
            <path id="path8667" d="m0 0s2.928 3.731 7.165 3.541-3.162-0.886-5.479-3.204-1.391-0.042-1.686-0.337" fill="#fff"/>
          </g>
        </g>
      </g>
    </g>
    <g id="g8669" transform="matrix(1.25 0 0 -1.25 868.27 688.74)">
      <path id="path8671" d="m0 0c0-5.677-3.265-10.279-7.291-10.279-4.025 0-7.292 4.602-7.292 10.279 0 5.676 3.267 10.278 7.292 10.278 4.026 0 7.291-4.602 7.291-10.278" fill="#f9dec5"/>
    </g>
    <g id="g8673" transform="matrix(1.25 0 0 -1.25 747.3 688.23)">
      <path id="path8675" d="m0 0c0-5.676-3.265-10.279-7.291-10.279-4.027 0-7.291 4.603-7.291 10.279 0 5.677 3.264 10.279 7.291 10.279 4.026 0 7.291-4.602 7.291-10.279" fill="#f9dec5"/>
    </g>
    <g id="g8677" transform="matrix(1.25 0 0 -1.25 768.05 718.36)">
      <path id="path8679" d="m0 0c0-3.269-3.388-5.917-7.565-5.917-4.179 0-7.567 2.648-7.567 5.917s3.388 5.918 7.567 5.918c4.177 0 7.565-2.649 7.565-5.918" fill="#f5c384"/>
    </g>
    <g id="g8681" transform="matrix(1.25 0 0 -1.25 848.35 718.36)">
      <path id="path8683" d="m0 0c0-3.269-3.389-5.917-7.565-5.917-4.18 0-7.567 2.648-7.567 5.917s3.387 5.918 7.567 5.918c4.176 0 7.565-2.649 7.565-5.918" fill="#f5c384"/>
    </g>
    <g id="g8685" transform="matrix(1.25 0 0 -1.25 790.71 661.78)">
      <path id="path8687" d="m0 0s11.528-13.726 4.391-29.648 20.863 15.922 16.471 31.295 10.47-1.314 12.63-10.432c0 0 7.137 2.746 7.137 7.139 0 0 8.924-4.022 8.924-12.718 0 0 4.245 4.028 5.197 3.075 0 0 15.527 6.896 12.233 25.563 0 0-1.877-5.336-9.059-9.057 0 0 10.159 21.137-10.156 35.962 0 0 3.293-13.178-3.844-20.315 0 0 0.001 19.765-20.863 28.001 0 0 5.487-12.629 2.743-20.315 0 0-31.297 25.257-17.57 46.121 0 0-34.041-19.217-34.041-48.317 0 0-7.136-8.235-13.726 3.295 0 0-4.107-16.757 0-20.864 0 0-11.529 2.745-14.274 14.276 0 0 1.098-24.071 11.375-34.35 0 0 6.455-3.468 6.874-6.873 0 0 6.014 13.662 12.044 15.869v-9.237s7.044 11.53 23.514 11.53"/>
    </g>
    <g id="g8689" transform="matrix(1.25 0 0 -1.25 863.53 680.93)">
      <path id="path8691" d="m0 0s-9.225 0.494-5.271-8.236" stroke="#f5c384" stroke-width=".392" fill="none"/>
    </g>
    <g id="g8693" transform="matrix(1.25 0 0 -1.25 862.92 689.49)">
      <path id="path8695" d="m0 0c0-1.549-1.256-2.805-2.804-2.805-1.55 0-2.803 1.256-2.803 2.805 0 1.548 1.253 2.805 2.803 2.805 1.548 0 2.804-1.257 2.804-2.805" fill="#f5c384"/>
    </g>
    <g id="g8697" transform="matrix(1.25 0 0 -1.25 734.24 680.93)">
      <path id="path8699" d="m0 0s9.226 0.494 5.271-8.236" stroke="#f5c384" stroke-width=".392" fill="none"/>
    </g>
    <g id="g8701" transform="matrix(1.25 0 0 -1.25 734.86 689.49)">
      <path id="path8703" d="m0 0c0-1.549 1.255-2.805 2.804-2.805s2.803 1.256 2.803 2.805c0 1.548-1.254 2.805-2.803 2.805s-2.804-1.257-2.804-2.805" fill="#f5c384"/>
    </g>
    <g id="g8705" transform="matrix(1.25 0 0 -1.25 771.39 744.66)">
      <path id="path8707" d="m0 0s-3.204 3.503-0.111 12.99 20.412-13.197 40 1.031 4.045-8.179 1.714-15.945c0 0-23.61-16.069-41.603 1.924" fill="#f15a24"/>
    </g>
    <g id="g8709" transform="matrix(1.25 0 0 -1.25 798.26 742.85)">
      <path id="path8711" d="m0 0c-7.292 0-13.66-2.02-17.206-5.035 13.296-9.244 28.27-3.248 34.425-0.013-3.542 3.022-9.918 5.048-17.219 5.048" fill="#c1272d"/>
    </g>
    <g id="g8713" transform="matrix(1.25 0 0 -1.25 45.354 1197.7)">
      <g id="g8721">
        <g id="g8723" opacity=".5" clip-path="url(#clipPath8717)">
          <g id="g8725" transform="translate(569.5 409.33)">
            <path id="path8727" d="m0 0s13.151 3.397 22.779-2.906-11.401 4.389-22.779 2.906" fill="#f7931e"/>
          </g>
        </g>
      </g>
    </g>
    <g id="g8729" transform="matrix(1.25 0 0 -1.25 45.354 1197.7)">
      <g id="g8737">
        <g id="g8739" opacity=".5" clip-path="url(#clipPath8733)">
          <g id="g8741" transform="translate(636.76 409.33)">
            <path id="path8743" d="m0 0s-13.151 3.397-22.78-2.906 11.403 4.389 22.78 2.906" fill="#f7931e"/>
          </g>
        </g>
      </g>
    </g>
    <g id="g8745" transform="matrix(1.25 0 0 -1.25 771.73 652.26)">
      <path id="path8747" d="m0 0s-15.678 45.457 23.426 67.056-32.636-42.722 6.224-67.056-24.83 15.116-29.65 0" fill="#333"/>
    </g>
    <g id="g8749" transform="matrix(1.25 0 0 -1.25 818.26 763.98)">
      <path id="path8751" d="m0 0c-3.659-2.759-8.999-4.509-14.968-4.509-5.636 0-10.718 1.56-14.347 4.055-14.463-4.645-26.195-15.631-32.108-29.791h95.13c-6.128 14.674-18.518 25.912-33.707 30.245" fill="#fbb03b"/>
    </g>
    <g id="g8753" transform="matrix(1.25 0 0 -1.25 45.354 1197.7)">
      <g id="g8761">
        <g id="g8763" opacity=".5" clip-path="url(#clipPath8757)">
          <g id="g8765" transform="translate(616.75 345.98)">
            <path id="path8767" d="m0 0c-9.066-5.136-18.999-1.843-23.26 0.047-1.268-0.537-2.739-0.378-3.057-0.334 3.484-1.984 7.975-3.204 12.924-3.204 5.195 0 9.898 1.339 13.446 3.5-0.018-0.005-0.035-0.005-0.053-0.009" fill="#f7931e"/>
          </g>
        </g>
      </g>
    </g>
    <g id="g8769" transform="matrix(1.25 0 0 -1.25 741.48 801.79)">
      <path id="path8771" d="m0 0s11.163-2.748 18.674-8.247 5.282 13.303 10.161 18.182" fill="#fbb03b"/>
    </g>
    <g id="g8773" transform="matrix(1.25 0 0 -1.25 860.39 801.79)">
      <path id="path8775" d="m0 0s-11.471-4.934-15.188-12.832-11.615 19.049-13.473 20.908" fill="#fbb03b"/>
    </g>
    <g id="g8777" transform="matrix(1.25 0 0 -1.25 45.354 1197.7)">
      <g id="g8785">
        <g id="g8787" opacity=".5" clip-path="url(#clipPath8781)">
          <g id="g8789" transform="translate(598.69 306.45)">
            <path id="path8791" d="m0 0 6.846-2.676-7.615 2.007s-12.053-1.975-12.053 6.747l12.822-6.078z" fill="#f7931e"/>
          </g>
        </g>
      </g>
    </g>
    <g id="g8793" transform="matrix(1.25 0 0 -1.25 803.04 801.79)">
      <path id="path8795" d="m0 0c0-5.69-4.825-10.303-10.778-10.303s-10.78 4.613-10.78 10.303 4.827 10.303 10.78 10.303 10.778-4.613 10.778-10.303" fill="#f9dec5"/>
    </g>
    <g id="g8797" transform="matrix(1.25 0 0 -1.25 829.73 802.23)">
      <path id="path8799" d="m0 0c0-5.495-4.66-9.949-10.408-9.949-5.749 0-10.408 4.454-10.408 9.949 0 5.494 4.659 9.949 10.408 9.949 5.748 0 10.408-4.455 10.408-9.949" fill="#f9dec5"/>
    </g>
    <g id="g8801" transform="matrix(1.25 0 0 -1.25 45.354 1197.7)">
      <g id="g8809">
        <g id="g8811" opacity=".5" clip-path="url(#clipPath8805)">
          <g id="g8813" transform="translate(606.87 316.2)">
            <path id="path8815" d="m0 0 19.31-4.646s-5.955 4.029-19.31 5.206" fill="#f7931e"/>
          </g>
        </g>
      </g>
    </g>
    <g id="g8817" transform="matrix(1.25 0 0 -1.25 45.354 1197.7)">
      <g id="g8825">
        <g id="g8827" opacity=".2" clip-path="url(#clipPath8821)">
          <g id="g8829" transform="translate(561.32 314.42)">
            <path id="path8831" d="m0 0s-10.323-16.59-5.825-22.046 2.508-2.875 7.669-0.516-10.462 1.585-1.844 22.562" fill="#fff"/>
          </g>
        </g>
      </g>
    </g>
    <g id="g8833" transform="matrix(1.25 0 0 -1.25 45.354 1197.7)">
      <g id="g8841">
        <g id="g8843" opacity=".2" clip-path="url(#clipPath8837)">
          <g id="g8845" transform="translate(598.28 325.26)">
            <path id="path8847" d="m0 0s-9.175-3.452-6.563-15.497-11.491 13.52 6.563 15.497" fill="#fff"/>
          </g>
        </g>
      </g>
    </g>
    <g id="g8849" transform="matrix(1.25 0 0 -1.25 45.354 1197.7)">
      <g id="g8857">
        <g id="g8859" opacity=".2" clip-path="url(#clipPath8853)">
          <g id="g8861" transform="translate(595.56 343.55)">
            <path id="path8863" d="m0 0c-0.672 0.19-1.327 0.402-1.959 0.638-20.37-5.951-32.734-27.434-32.734-27.434h12.03c8.965 15.864 18.24 23.688 22.663 26.796" fill="#fff"/>
          </g>
        </g>
      </g>
    </g>
  </g>
  <metadata>
    <rdf:RDF>
      <cc:Work>
        <dc:format>image/svg+xml</dc:format>
        <dc:type rdf:resource="http://purl.org/dc/dcmitype/StillImage"/>
        <cc:license rdf:resource="http://creativecommons.org/licenses/publicdomain/"/>
        <dc:publisher>
          <cc:Agent rdf:about="http://openclipart.org/">
            <dc:title>Openclipart</dc:title>
          </cc:Agent>
        </dc:publisher>
        <dc:title>Boy5</dc:title>
        <dc:date>2010-12-04T02:59:44</dc:date>
        <dc:description>Boy5</dc:description>
        <dc:source>http://openclipart.org/detail/99247/boy5-by-dcatcherex</dc:source>
        <dc:creator>
          <cc:Agent>
            <dc:title>dcatcherex</dc:title>
          </cc:Agent>
        </dc:creator>
        <dc:subject>
          <rdf:Bag>
            <rdf:li>anime</rdf:li>
            <rdf:li>boy</rdf:li>
            <rdf:li>cartoon</rdf:li>
            <rdf:li>character</rdf:li>
            <rdf:li>clip art</rdf:li>
            <rdf:li>clipart</rdf:li>
            <rdf:li>comic</rdf:li>
            <rdf:li>man</rdf:li>
            <rdf:li>people</rdf:li>
          </rdf:Bag>
        </dc:subject>
      </cc:Work>
      <cc:License rdf:about="http://creativecommons.org/licenses/publicdomain/">
        <cc:permits rdf:resource="http://creativecommons.org/ns#Reproduction"/>
        <cc:permits rdf:resource="http://creativecommons.org/ns#Distribution"/>
        <cc:permits rdf:resource="http://creativecommons.org/ns#DerivativeWorks"/>
      </cc:License>
    </rdf:RDF>
  </metadata>
</svg>
